<mxfile host="app.diagrams.net" modified="2021-07-09T07:46:08.628Z" agent="5.0 (Windows NT 10.0; Win64; x64) AppleWebKit/537.36 (KHTML, like Gecko) Chrome/91.0.4472.124 Safari/537.36" etag="gjPde2o9fXXWTPercOgH" version="14.8.5" type="github">
  <diagram id="C5RBs43oDa-KdzZeNtuy" name="Page-1">
    <mxGraphModel dx="1422" dy="762" grid="1" gridSize="10" guides="1" tooltips="1" connect="1" arrows="1" fold="1" page="1" pageScale="1" pageWidth="1654" pageHeight="2336" math="0" shadow="0">
      <root>
        <mxCell id="WIyWlLk6GJQsqaUBKTNV-0" />
        <mxCell id="WIyWlLk6GJQsqaUBKTNV-1" parent="WIyWlLk6GJQsqaUBKTNV-0" />
        <mxCell id="3iObHFwWadMs1wE5Qv02-64" style="edgeStyle=orthogonalEdgeStyle;rounded=0;orthogonalLoop=1;jettySize=auto;html=1;entryX=0.5;entryY=0;entryDx=0;entryDy=0;" edge="1" parent="WIyWlLk6GJQsqaUBKTNV-1" source="3iObHFwWadMs1wE5Qv02-0" target="3iObHFwWadMs1wE5Qv02-1">
          <mxGeometry relative="1" as="geometry" />
        </mxCell>
        <mxCell id="3iObHFwWadMs1wE5Qv02-65" style="edgeStyle=orthogonalEdgeStyle;rounded=0;orthogonalLoop=1;jettySize=auto;html=1;entryX=0.5;entryY=0;entryDx=0;entryDy=0;" edge="1" parent="WIyWlLk6GJQsqaUBKTNV-1" source="3iObHFwWadMs1wE5Qv02-0" target="3iObHFwWadMs1wE5Qv02-2">
          <mxGeometry relative="1" as="geometry" />
        </mxCell>
        <mxCell id="3iObHFwWadMs1wE5Qv02-66" style="edgeStyle=orthogonalEdgeStyle;rounded=0;orthogonalLoop=1;jettySize=auto;html=1;exitX=1;exitY=0.5;exitDx=0;exitDy=0;entryX=0.5;entryY=0;entryDx=0;entryDy=0;" edge="1" parent="WIyWlLk6GJQsqaUBKTNV-1" source="3iObHFwWadMs1wE5Qv02-0" target="3iObHFwWadMs1wE5Qv02-3">
          <mxGeometry relative="1" as="geometry" />
        </mxCell>
        <mxCell id="3iObHFwWadMs1wE5Qv02-0" value="Project" style="rounded=0;whiteSpace=wrap;html=1;fontStyle=1" vertex="1" parent="WIyWlLk6GJQsqaUBKTNV-1">
          <mxGeometry x="131" y="60" width="80" height="30" as="geometry" />
        </mxCell>
        <mxCell id="3iObHFwWadMs1wE5Qv02-1" value="projLine 1" style="rounded=0;whiteSpace=wrap;html=1;" vertex="1" parent="WIyWlLk6GJQsqaUBKTNV-1">
          <mxGeometry x="40" y="140" width="70" height="20" as="geometry" />
        </mxCell>
        <mxCell id="3iObHFwWadMs1wE5Qv02-2" value="projLine 2" style="rounded=0;whiteSpace=wrap;html=1;" vertex="1" parent="WIyWlLk6GJQsqaUBKTNV-1">
          <mxGeometry x="136" y="140" width="70" height="20" as="geometry" />
        </mxCell>
        <mxCell id="3iObHFwWadMs1wE5Qv02-3" value="projLine 3" style="rounded=0;whiteSpace=wrap;html=1;" vertex="1" parent="WIyWlLk6GJQsqaUBKTNV-1">
          <mxGeometry x="230" y="140" width="70" height="20" as="geometry" />
        </mxCell>
        <mxCell id="3iObHFwWadMs1wE5Qv02-4" value="page 1" style="strokeWidth=2;html=1;shape=mxgraph.flowchart.stored_data;whiteSpace=wrap;" vertex="1" parent="WIyWlLk6GJQsqaUBKTNV-1">
          <mxGeometry x="40" y="190" width="60" height="20" as="geometry" />
        </mxCell>
        <mxCell id="3iObHFwWadMs1wE5Qv02-5" value="page 1" style="strokeWidth=2;html=1;shape=mxgraph.flowchart.stored_data;whiteSpace=wrap;" vertex="1" parent="WIyWlLk6GJQsqaUBKTNV-1">
          <mxGeometry x="136" y="190" width="60" height="20" as="geometry" />
        </mxCell>
        <mxCell id="3iObHFwWadMs1wE5Qv02-6" value="page 1" style="strokeWidth=2;html=1;shape=mxgraph.flowchart.stored_data;whiteSpace=wrap;" vertex="1" parent="WIyWlLk6GJQsqaUBKTNV-1">
          <mxGeometry x="230" y="190" width="60" height="20" as="geometry" />
        </mxCell>
        <mxCell id="3iObHFwWadMs1wE5Qv02-7" value="page 2" style="strokeWidth=2;html=1;shape=mxgraph.flowchart.stored_data;whiteSpace=wrap;" vertex="1" parent="WIyWlLk6GJQsqaUBKTNV-1">
          <mxGeometry x="40" y="270" width="60" height="20" as="geometry" />
        </mxCell>
        <mxCell id="3iObHFwWadMs1wE5Qv02-8" value="page 2" style="strokeWidth=2;html=1;shape=mxgraph.flowchart.stored_data;whiteSpace=wrap;" vertex="1" parent="WIyWlLk6GJQsqaUBKTNV-1">
          <mxGeometry x="141" y="270" width="60" height="20" as="geometry" />
        </mxCell>
        <mxCell id="3iObHFwWadMs1wE5Qv02-9" value="page 3" style="strokeWidth=2;html=1;shape=mxgraph.flowchart.stored_data;whiteSpace=wrap;" vertex="1" parent="WIyWlLk6GJQsqaUBKTNV-1">
          <mxGeometry x="141" y="350" width="60" height="20" as="geometry" />
        </mxCell>
        <mxCell id="3iObHFwWadMs1wE5Qv02-10" value="page 3" style="strokeWidth=2;html=1;shape=mxgraph.flowchart.stored_data;whiteSpace=wrap;" vertex="1" parent="WIyWlLk6GJQsqaUBKTNV-1">
          <mxGeometry x="40" y="350" width="60" height="20" as="geometry" />
        </mxCell>
        <mxCell id="3iObHFwWadMs1wE5Qv02-17" value="thread1 -&amp;gt; daas&lt;br&gt;thread2 -&amp;gt; daas&lt;br&gt;thread3 -&amp;gt; daas" style="rounded=0;whiteSpace=wrap;html=1;" vertex="1" parent="WIyWlLk6GJQsqaUBKTNV-1">
          <mxGeometry x="320" y="180" width="120" height="40" as="geometry" />
        </mxCell>
        <mxCell id="3iObHFwWadMs1wE5Qv02-18" value="DaasPage 1&lt;br&gt;DaasPage 2&lt;br&gt;DaasPage 3" style="rounded=0;whiteSpace=wrap;html=1;" vertex="1" parent="WIyWlLk6GJQsqaUBKTNV-1">
          <mxGeometry x="470" y="175" width="80" height="50" as="geometry" />
        </mxCell>
        <mxCell id="3iObHFwWadMs1wE5Qv02-20" value="" style="endArrow=classic;html=1;entryX=0;entryY=0.5;entryDx=0;entryDy=0;exitX=1;exitY=0.5;exitDx=0;exitDy=0;" edge="1" parent="WIyWlLk6GJQsqaUBKTNV-1" source="3iObHFwWadMs1wE5Qv02-17" target="3iObHFwWadMs1wE5Qv02-18">
          <mxGeometry width="50" height="50" relative="1" as="geometry">
            <mxPoint x="300" y="220" as="sourcePoint" />
            <mxPoint x="350" y="170" as="targetPoint" />
          </mxGeometry>
        </mxCell>
        <mxCell id="3iObHFwWadMs1wE5Qv02-26" style="edgeStyle=orthogonalEdgeStyle;rounded=0;orthogonalLoop=1;jettySize=auto;html=1;exitX=1;exitY=0.5;exitDx=0;exitDy=0;entryX=0;entryY=0.5;entryDx=0;entryDy=0;" edge="1" parent="WIyWlLk6GJQsqaUBKTNV-1" source="3iObHFwWadMs1wE5Qv02-21" target="3iObHFwWadMs1wE5Qv02-25">
          <mxGeometry relative="1" as="geometry" />
        </mxCell>
        <mxCell id="3iObHFwWadMs1wE5Qv02-21" value="去重" style="whiteSpace=wrap;html=1;aspect=fixed;" vertex="1" parent="WIyWlLk6GJQsqaUBKTNV-1">
          <mxGeometry x="590" y="180" width="40" height="40" as="geometry" />
        </mxCell>
        <mxCell id="3iObHFwWadMs1wE5Qv02-22" value="" style="endArrow=classic;html=1;exitX=1;exitY=0.5;exitDx=0;exitDy=0;entryX=0;entryY=0.5;entryDx=0;entryDy=0;" edge="1" parent="WIyWlLk6GJQsqaUBKTNV-1" source="3iObHFwWadMs1wE5Qv02-18" target="3iObHFwWadMs1wE5Qv02-21">
          <mxGeometry width="50" height="50" relative="1" as="geometry">
            <mxPoint x="560" y="240" as="sourcePoint" />
            <mxPoint x="610" y="190" as="targetPoint" />
          </mxGeometry>
        </mxCell>
        <mxCell id="3iObHFwWadMs1wE5Qv02-23" value="已处理货品Id 集合" style="shape=cylinder3;whiteSpace=wrap;html=1;boundedLbl=1;backgroundOutline=1;size=15;" vertex="1" parent="WIyWlLk6GJQsqaUBKTNV-1">
          <mxGeometry x="585" y="40" width="55" height="80" as="geometry" />
        </mxCell>
        <mxCell id="3iObHFwWadMs1wE5Qv02-24" value="" style="shape=flexArrow;endArrow=classic;startArrow=classic;html=1;entryX=0.5;entryY=1;entryDx=0;entryDy=0;entryPerimeter=0;" edge="1" parent="WIyWlLk6GJQsqaUBKTNV-1" source="3iObHFwWadMs1wE5Qv02-21" target="3iObHFwWadMs1wE5Qv02-23">
          <mxGeometry width="100" height="100" relative="1" as="geometry">
            <mxPoint x="570" y="230" as="sourcePoint" />
            <mxPoint x="670" y="130" as="targetPoint" />
          </mxGeometry>
        </mxCell>
        <mxCell id="3iObHFwWadMs1wE5Qv02-29" style="edgeStyle=orthogonalEdgeStyle;rounded=0;orthogonalLoop=1;jettySize=auto;html=1;exitX=1;exitY=0.5;exitDx=0;exitDy=0;entryX=-0.02;entryY=0.4;entryDx=0;entryDy=0;entryPerimeter=0;" edge="1" parent="WIyWlLk6GJQsqaUBKTNV-1" source="3iObHFwWadMs1wE5Qv02-25" target="3iObHFwWadMs1wE5Qv02-27">
          <mxGeometry relative="1" as="geometry" />
        </mxCell>
        <mxCell id="3iObHFwWadMs1wE5Qv02-25" value="试算" style="rounded=0;whiteSpace=wrap;html=1;" vertex="1" parent="WIyWlLk6GJQsqaUBKTNV-1">
          <mxGeometry x="680" y="177.5" width="70" height="45" as="geometry" />
        </mxCell>
        <mxCell id="3iObHFwWadMs1wE5Qv02-30" style="edgeStyle=orthogonalEdgeStyle;rounded=0;orthogonalLoop=1;jettySize=auto;html=1;exitX=1;exitY=0.5;exitDx=0;exitDy=0;exitPerimeter=0;entryX=0;entryY=0.5;entryDx=0;entryDy=0;" edge="1" parent="WIyWlLk6GJQsqaUBKTNV-1" source="3iObHFwWadMs1wE5Qv02-27" target="3iObHFwWadMs1wE5Qv02-28">
          <mxGeometry relative="1" as="geometry" />
        </mxCell>
        <mxCell id="3iObHFwWadMs1wE5Qv02-27" value="queue" style="shape=cylinder3;whiteSpace=wrap;html=1;boundedLbl=1;backgroundOutline=1;size=15;" vertex="1" parent="WIyWlLk6GJQsqaUBKTNV-1">
          <mxGeometry x="870" y="220" width="100" height="110" as="geometry" />
        </mxCell>
        <mxCell id="3iObHFwWadMs1wE5Qv02-28" value="写入excel" style="rounded=0;whiteSpace=wrap;html=1;" vertex="1" parent="WIyWlLk6GJQsqaUBKTNV-1">
          <mxGeometry x="1070" y="250" width="90" height="50" as="geometry" />
        </mxCell>
        <mxCell id="3iObHFwWadMs1wE5Qv02-31" value="thread1 -&amp;gt; daas&lt;br&gt;thread2 -&amp;gt; daas" style="rounded=0;whiteSpace=wrap;html=1;" vertex="1" parent="WIyWlLk6GJQsqaUBKTNV-1">
          <mxGeometry x="320" y="260" width="120" height="40" as="geometry" />
        </mxCell>
        <mxCell id="3iObHFwWadMs1wE5Qv02-32" value="DaasPage 1&lt;br&gt;DaasPage 2" style="rounded=0;whiteSpace=wrap;html=1;" vertex="1" parent="WIyWlLk6GJQsqaUBKTNV-1">
          <mxGeometry x="470" y="255" width="80" height="50" as="geometry" />
        </mxCell>
        <mxCell id="3iObHFwWadMs1wE5Qv02-33" value="" style="endArrow=classic;html=1;entryX=0;entryY=0.5;entryDx=0;entryDy=0;exitX=1;exitY=0.5;exitDx=0;exitDy=0;" edge="1" parent="WIyWlLk6GJQsqaUBKTNV-1" source="3iObHFwWadMs1wE5Qv02-31" target="3iObHFwWadMs1wE5Qv02-32">
          <mxGeometry width="50" height="50" relative="1" as="geometry">
            <mxPoint x="300" y="300" as="sourcePoint" />
            <mxPoint x="350" y="250" as="targetPoint" />
          </mxGeometry>
        </mxCell>
        <mxCell id="3iObHFwWadMs1wE5Qv02-34" style="edgeStyle=orthogonalEdgeStyle;rounded=0;orthogonalLoop=1;jettySize=auto;html=1;exitX=1;exitY=0.5;exitDx=0;exitDy=0;entryX=0;entryY=0.5;entryDx=0;entryDy=0;" edge="1" parent="WIyWlLk6GJQsqaUBKTNV-1" source="3iObHFwWadMs1wE5Qv02-35" target="3iObHFwWadMs1wE5Qv02-37">
          <mxGeometry relative="1" as="geometry" />
        </mxCell>
        <mxCell id="3iObHFwWadMs1wE5Qv02-35" value="去重" style="whiteSpace=wrap;html=1;aspect=fixed;" vertex="1" parent="WIyWlLk6GJQsqaUBKTNV-1">
          <mxGeometry x="590" y="260" width="40" height="40" as="geometry" />
        </mxCell>
        <mxCell id="3iObHFwWadMs1wE5Qv02-36" value="" style="endArrow=classic;html=1;exitX=1;exitY=0.5;exitDx=0;exitDy=0;entryX=0;entryY=0.5;entryDx=0;entryDy=0;" edge="1" parent="WIyWlLk6GJQsqaUBKTNV-1" source="3iObHFwWadMs1wE5Qv02-32" target="3iObHFwWadMs1wE5Qv02-35">
          <mxGeometry width="50" height="50" relative="1" as="geometry">
            <mxPoint x="560" y="320" as="sourcePoint" />
            <mxPoint x="610" y="270" as="targetPoint" />
          </mxGeometry>
        </mxCell>
        <mxCell id="3iObHFwWadMs1wE5Qv02-51" style="edgeStyle=orthogonalEdgeStyle;rounded=0;orthogonalLoop=1;jettySize=auto;html=1;" edge="1" parent="WIyWlLk6GJQsqaUBKTNV-1" source="3iObHFwWadMs1wE5Qv02-37">
          <mxGeometry relative="1" as="geometry">
            <mxPoint x="870" y="280" as="targetPoint" />
          </mxGeometry>
        </mxCell>
        <mxCell id="3iObHFwWadMs1wE5Qv02-37" value="试算" style="rounded=0;whiteSpace=wrap;html=1;" vertex="1" parent="WIyWlLk6GJQsqaUBKTNV-1">
          <mxGeometry x="680" y="257.5" width="70" height="45" as="geometry" />
        </mxCell>
        <mxCell id="3iObHFwWadMs1wE5Qv02-38" value="thread1 -&amp;gt; daas&lt;br&gt;thread2 -&amp;gt; daas" style="rounded=0;whiteSpace=wrap;html=1;" vertex="1" parent="WIyWlLk6GJQsqaUBKTNV-1">
          <mxGeometry x="320" y="340" width="120" height="40" as="geometry" />
        </mxCell>
        <mxCell id="3iObHFwWadMs1wE5Qv02-39" value="DaasPage 1&lt;br&gt;DaasPage 2" style="rounded=0;whiteSpace=wrap;html=1;" vertex="1" parent="WIyWlLk6GJQsqaUBKTNV-1">
          <mxGeometry x="470" y="335" width="80" height="50" as="geometry" />
        </mxCell>
        <mxCell id="3iObHFwWadMs1wE5Qv02-40" value="" style="endArrow=classic;html=1;entryX=0;entryY=0.5;entryDx=0;entryDy=0;exitX=1;exitY=0.5;exitDx=0;exitDy=0;" edge="1" parent="WIyWlLk6GJQsqaUBKTNV-1" source="3iObHFwWadMs1wE5Qv02-38" target="3iObHFwWadMs1wE5Qv02-39">
          <mxGeometry width="50" height="50" relative="1" as="geometry">
            <mxPoint x="300" y="380" as="sourcePoint" />
            <mxPoint x="350" y="330" as="targetPoint" />
          </mxGeometry>
        </mxCell>
        <mxCell id="3iObHFwWadMs1wE5Qv02-41" style="edgeStyle=orthogonalEdgeStyle;rounded=0;orthogonalLoop=1;jettySize=auto;html=1;exitX=1;exitY=0.5;exitDx=0;exitDy=0;entryX=0;entryY=0.5;entryDx=0;entryDy=0;" edge="1" parent="WIyWlLk6GJQsqaUBKTNV-1" source="3iObHFwWadMs1wE5Qv02-42" target="3iObHFwWadMs1wE5Qv02-44">
          <mxGeometry relative="1" as="geometry" />
        </mxCell>
        <mxCell id="3iObHFwWadMs1wE5Qv02-42" value="去重" style="whiteSpace=wrap;html=1;aspect=fixed;" vertex="1" parent="WIyWlLk6GJQsqaUBKTNV-1">
          <mxGeometry x="590" y="340" width="40" height="40" as="geometry" />
        </mxCell>
        <mxCell id="3iObHFwWadMs1wE5Qv02-43" value="" style="endArrow=classic;html=1;exitX=1;exitY=0.5;exitDx=0;exitDy=0;entryX=0;entryY=0.5;entryDx=0;entryDy=0;" edge="1" parent="WIyWlLk6GJQsqaUBKTNV-1" source="3iObHFwWadMs1wE5Qv02-39" target="3iObHFwWadMs1wE5Qv02-42">
          <mxGeometry width="50" height="50" relative="1" as="geometry">
            <mxPoint x="560" y="400" as="sourcePoint" />
            <mxPoint x="610" y="350" as="targetPoint" />
          </mxGeometry>
        </mxCell>
        <mxCell id="3iObHFwWadMs1wE5Qv02-52" style="edgeStyle=orthogonalEdgeStyle;rounded=0;orthogonalLoop=1;jettySize=auto;html=1;entryX=0;entryY=0;entryDx=0;entryDy=75;entryPerimeter=0;" edge="1" parent="WIyWlLk6GJQsqaUBKTNV-1" source="3iObHFwWadMs1wE5Qv02-44" target="3iObHFwWadMs1wE5Qv02-27">
          <mxGeometry relative="1" as="geometry" />
        </mxCell>
        <mxCell id="3iObHFwWadMs1wE5Qv02-44" value="试算" style="rounded=0;whiteSpace=wrap;html=1;" vertex="1" parent="WIyWlLk6GJQsqaUBKTNV-1">
          <mxGeometry x="680" y="337.5" width="70" height="45" as="geometry" />
        </mxCell>
        <mxCell id="3iObHFwWadMs1wE5Qv02-47" value="" style="endArrow=none;dashed=1;html=1;dashPattern=1 3;strokeWidth=2;exitX=0;exitY=0.5;exitDx=0;exitDy=0;exitPerimeter=0;entryX=0;entryY=0.5;entryDx=0;entryDy=0;" edge="1" parent="WIyWlLk6GJQsqaUBKTNV-1" source="3iObHFwWadMs1wE5Qv02-7" target="3iObHFwWadMs1wE5Qv02-31">
          <mxGeometry width="50" height="50" relative="1" as="geometry">
            <mxPoint x="670" y="240" as="sourcePoint" />
            <mxPoint x="720" y="190" as="targetPoint" />
          </mxGeometry>
        </mxCell>
        <mxCell id="3iObHFwWadMs1wE5Qv02-48" value="" style="endArrow=none;dashed=1;html=1;dashPattern=1 3;strokeWidth=2;entryX=0;entryY=0.5;entryDx=0;entryDy=0;exitX=0;exitY=0.5;exitDx=0;exitDy=0;exitPerimeter=0;" edge="1" parent="WIyWlLk6GJQsqaUBKTNV-1" source="3iObHFwWadMs1wE5Qv02-4" target="3iObHFwWadMs1wE5Qv02-17">
          <mxGeometry width="50" height="50" relative="1" as="geometry">
            <mxPoint x="45" y="200" as="sourcePoint" />
            <mxPoint x="95" y="150" as="targetPoint" />
          </mxGeometry>
        </mxCell>
        <mxCell id="3iObHFwWadMs1wE5Qv02-49" value="" style="endArrow=none;dashed=1;html=1;dashPattern=1 3;strokeWidth=2;exitX=0;exitY=0.5;exitDx=0;exitDy=0;exitPerimeter=0;entryX=0;entryY=0.5;entryDx=0;entryDy=0;" edge="1" parent="WIyWlLk6GJQsqaUBKTNV-1" source="3iObHFwWadMs1wE5Qv02-10" target="3iObHFwWadMs1wE5Qv02-38">
          <mxGeometry width="50" height="50" relative="1" as="geometry">
            <mxPoint x="600" y="240" as="sourcePoint" />
            <mxPoint x="650" y="190" as="targetPoint" />
          </mxGeometry>
        </mxCell>
        <mxCell id="3iObHFwWadMs1wE5Qv02-59" value="" style="shape=flexArrow;endArrow=classic;startArrow=classic;html=1;entryX=0.5;entryY=1;entryDx=0;entryDy=0;entryPerimeter=0;exitX=0.5;exitY=0;exitDx=0;exitDy=0;" edge="1" parent="WIyWlLk6GJQsqaUBKTNV-1" source="3iObHFwWadMs1wE5Qv02-25" target="3iObHFwWadMs1wE5Qv02-70">
          <mxGeometry width="100" height="100" relative="1" as="geometry">
            <mxPoint x="830" y="210" as="sourcePoint" />
            <mxPoint x="715" y="115" as="targetPoint" />
          </mxGeometry>
        </mxCell>
        <mxCell id="3iObHFwWadMs1wE5Qv02-60" value="排队写入" style="text;html=1;align=center;verticalAlign=middle;resizable=0;points=[];autosize=1;strokeColor=none;" vertex="1" parent="WIyWlLk6GJQsqaUBKTNV-1">
          <mxGeometry x="970" y="250" width="60" height="20" as="geometry" />
        </mxCell>
        <mxCell id="3iObHFwWadMs1wE5Qv02-67" value="" style="endArrow=none;dashed=1;html=1;entryX=0.5;entryY=1;entryDx=0;entryDy=0;" edge="1" parent="WIyWlLk6GJQsqaUBKTNV-1" target="3iObHFwWadMs1wE5Qv02-1">
          <mxGeometry width="50" height="50" relative="1" as="geometry">
            <mxPoint x="75" y="370" as="sourcePoint" />
            <mxPoint x="110" y="420" as="targetPoint" />
          </mxGeometry>
        </mxCell>
        <mxCell id="3iObHFwWadMs1wE5Qv02-69" value="" style="endArrow=none;dashed=1;html=1;entryX=0.5;entryY=1;entryDx=0;entryDy=0;exitX=0.5;exitY=1;exitDx=0;exitDy=0;exitPerimeter=0;" edge="1" parent="WIyWlLk6GJQsqaUBKTNV-1" source="3iObHFwWadMs1wE5Qv02-9" target="3iObHFwWadMs1wE5Qv02-2">
          <mxGeometry width="50" height="50" relative="1" as="geometry">
            <mxPoint x="600" y="260" as="sourcePoint" />
            <mxPoint x="650" y="210" as="targetPoint" />
          </mxGeometry>
        </mxCell>
        <mxCell id="3iObHFwWadMs1wE5Qv02-70" value="汇集试算结果" style="shape=cylinder3;whiteSpace=wrap;html=1;boundedLbl=1;backgroundOutline=1;size=15;" vertex="1" parent="WIyWlLk6GJQsqaUBKTNV-1">
          <mxGeometry x="687.5" y="40" width="55" height="80" as="geometry" />
        </mxCell>
        <mxCell id="3iObHFwWadMs1wE5Qv02-72" value="" style="whiteSpace=wrap;html=1;aspect=fixed;" vertex="1" parent="WIyWlLk6GJQsqaUBKTNV-1">
          <mxGeometry x="742.5" y="500" width="160" height="160" as="geometry" />
        </mxCell>
        <mxCell id="3iObHFwWadMs1wE5Qv02-73" value="line 1" style="ellipse;whiteSpace=wrap;html=1;aspect=fixed;" vertex="1" parent="WIyWlLk6GJQsqaUBKTNV-1">
          <mxGeometry x="752.5" y="540" width="80" height="80" as="geometry" />
        </mxCell>
        <mxCell id="3iObHFwWadMs1wE5Qv02-74" value="line 2" style="ellipse;whiteSpace=wrap;html=1;aspect=fixed;" vertex="1" parent="WIyWlLk6GJQsqaUBKTNV-1">
          <mxGeometry x="802.5" y="510" width="80" height="80" as="geometry" />
        </mxCell>
        <mxCell id="3iObHFwWadMs1wE5Qv02-75" value="line 3" style="ellipse;whiteSpace=wrap;html=1;aspect=fixed;" vertex="1" parent="WIyWlLk6GJQsqaUBKTNV-1">
          <mxGeometry x="832.5" y="600" width="50" height="50" as="geometry" />
        </mxCell>
        <mxCell id="3iObHFwWadMs1wE5Qv02-78" value="去重的目的&lt;br&gt;" style="text;html=1;align=center;verticalAlign=middle;resizable=0;points=[];autosize=1;strokeColor=none;" vertex="1" parent="WIyWlLk6GJQsqaUBKTNV-1">
          <mxGeometry x="782.5" y="660" width="80" height="20" as="geometry" />
        </mxCell>
        <mxCell id="3iObHFwWadMs1wE5Qv02-79" value="" style="strokeWidth=2;html=1;shape=mxgraph.flowchart.annotation_2;align=left;labelPosition=right;pointerEvents=1;rotation=-90;" vertex="1" parent="WIyWlLk6GJQsqaUBKTNV-1">
          <mxGeometry x="503.75" y="246.25" width="80" height="347.5" as="geometry" />
        </mxCell>
        <mxCell id="3iObHFwWadMs1wE5Qv02-80" value="抽成 Task 并行处理, 产生结果: &lt;br&gt;1. 已处理的货品invnt_id登记&lt;br&gt;2. 这批货品处理结果(回款率&amp;amp;金额)&lt;br&gt;3. 试算结果排队写入excel" style="text;html=1;align=center;verticalAlign=middle;resizable=0;points=[];autosize=1;strokeColor=none;fontStyle=1" vertex="1" parent="WIyWlLk6GJQsqaUBKTNV-1">
          <mxGeometry x="450" y="460" width="200" height="60" as="geometry" />
        </mxCell>
        <mxCell id="3iObHFwWadMs1wE5Qv02-81" value="Q1:&amp;nbsp; 并行处理时, 去重如何保证&lt;br&gt;Q2: 并行处理数据量内存" style="text;html=1;align=center;verticalAlign=middle;resizable=0;points=[];autosize=1;strokeColor=none;" vertex="1" parent="WIyWlLk6GJQsqaUBKTNV-1">
          <mxGeometry x="410" y="555" width="180" height="30" as="geometry" />
        </mxCell>
      </root>
    </mxGraphModel>
  </diagram>
</mxfile>
